<?xml version="1.0" encoding="UTF-8" standalone="no"?><!DOCTYPE svg PUBLIC "-//W3C//DTD SVG 1.1//EN" "http://www.w3.org/Graphics/SVG/1.1/DTD/svg11.dtd"><svg width="100%" height="100%" viewBox="0 0 50 50" version="1.1" xmlns="http://www.w3.org/2000/svg" xmlns:xlink="http://www.w3.org/1999/xlink" xml:space="preserve" xmlns:serif="http://www.serif.com/" style="fill-rule:evenodd;clip-rule:evenodd;stroke-linejoin:round;stroke-miterlimit:2;"><path d="M44.99,35.79c0,-0.21 -0.084,-0.411 -0.232,-0.559c-0.148,-0.148 -0.349,-0.232 -0.559,-0.232c-5.081,0 -33.086,0 -38.339,0c-0.226,0 -0.442,0.09 -0.601,0.249c-0.159,0.159 -0.249,0.375 -0.249,0.601c0,1.364 0,4.025 0,5.37c0,0.453 0.367,0.82 0.82,0.82c5.182,0 33.35,0 38.388,0c0.426,0 0.772,-0.346 0.772,-0.772c0,-1.347 0,-4.116 0,-5.477Z" style="fill:#262626;"/><path d="M44.99,8.771c0,-0.21 -0.084,-0.411 -0.232,-0.56c-0.148,-0.148 -0.349,-0.231 -0.559,-0.231c-5.081,0 -33.086,0 -38.339,0c-0.226,0 -0.442,0.089 -0.601,0.249c-0.159,0.159 -0.249,0.375 -0.249,0.6c0,1.364 0,4.026 0,5.371c0,0.452 0.367,0.819 0.82,0.819c5.182,0 33.35,0 38.388,0c0.426,0 0.772,-0.345 0.772,-0.771c0,-1.348 0,-4.116 0,-5.477Z" style="fill:#262626;"/><path d="M44.99,22.265c0,-0.21 -0.084,-0.411 -0.232,-0.56c-0.148,-0.148 -0.349,-0.231 -0.559,-0.231c-5.081,0 -33.086,0 -38.339,0c-0.226,0 -0.442,0.089 -0.601,0.249c-0.159,0.159 -0.249,0.375 -0.249,0.6c0,1.364 0,4.026 0,5.371c0,0.452 0.367,0.819 0.82,0.819c5.182,0 33.35,0 38.388,0c0.426,0 0.772,-0.345 0.772,-0.771c0,-1.348 0,-4.116 0,-5.477Z" style="fill:#272727;"/></svg>